<?xml version="1.0" standalone="no"?>
<!DOCTYPE svg PUBLIC "-//W3C//DTD SVG 20010904//EN"
 "http://www.w3.org/TR/2001/REC-SVG-20010904/DTD/svg10.dtd">
<svg version="1.0" xmlns="http://www.w3.org/2000/svg"
 width="16.000000pt" height="16.000000pt" viewBox="0 0 16.000000 16.000000"
 preserveAspectRatio="xMidYMid meet">
<metadata>
Created by potrace 1.11, written by Peter Selinger 2001-2013
</metadata>
<g transform="translate(0.000000,16.000000) scale(0.002286,-0.002286)"
fill="#000000" stroke="none">
<path d="M1580 5459 c-153 -13 -216 -20 -260 -31 -25 -5 -58 -12 -74 -15 -38
-6 -209 -59 -233 -72 -10 -5 -47 -24 -83 -41 -224 -111 -377 -302 -421 -524
-15 -75 -12 -233 5 -298 63 -235 226 -355 480 -351 225 4 400 126 449 314 23
90 11 278 -23 338 -7 13 -26 16 -87 16 l-78 0 -17 54 c-32 99 -11 248 48 342
27 44 108 116 149 133 149 62 371 45 483 -37 45 -33 91 -93 117 -152 20 -45
35 -91 34 -105 0 -3 4 -17 10 -32 5 -14 13 -61 16 -105 4 -43 9 -81 12 -85 6
-10 5 -352 -1 -413 -8 -76 -24 -191 -31 -220 -1 -5 -5 -28 -10 -50 -32 -170
-138 -415 -259 -600 -118 -181 -222 -302 -476 -555 -168 -168 -239 -236 -425
-405 -16 -16 -77 -71 -135 -124 -57 -53 -135 -123 -171 -156 l-67 -60 -1 -318
-1 -317 1282 2 1283 3 1 40 c0 22 4 135 8 250 4 116 9 262 11 325 2 63 6 174
9 245 3 72 8 213 12 315 3 102 7 217 9 257 l3 71 -44 0 c-47 0 -51 -2 -58 -39
-73 -383 -234 -566 -546 -621 -73 -13 -1503 -20 -1495 -8 3 4 100 76 217 160
117 84 236 170 263 190 28 20 141 103 252 183 202 147 369 270 388 285 6 4 46
35 90 69 283 218 400 319 527 452 243 256 331 465 324 776 -3 139 -5 157 -27
245 -83 329 -375 557 -809 634 -206 37 -464 50 -650 35z"/>
<path d="M4857 5464 c-1 -1 -45 -5 -96 -8 -500 -34 -880 -206 -1065 -484 -93
-140 -137 -288 -141 -473 -6 -282 99 -495 324 -662 98 -72 322 -171 436 -191
17 -3 41 -8 55 -11 14 -3 36 -7 50 -9 14 -3 45 -8 70 -12 51 -8 76 -11 138
-13 66 -2 50 -19 -25 -26 -38 -4 -79 -9 -93 -11 -14 -2 -47 -6 -75 -10 -75 -9
-272 -60 -365 -94 -282 -102 -485 -296 -569 -541 -17 -51 -30 -107 -46 -194
-10 -60 -5 -272 9 -345 23 -122 26 -131 58 -209 131 -314 421 -503 913 -595
11 -2 45 -7 76 -10 31 -4 67 -9 80 -11 36 -7 263 -18 379 -19 119 0 409 12
419 19 4 2 36 7 71 10 36 4 67 8 70 10 3 2 25 6 50 10 124 18 284 69 410 130
212 102 365 261 444 462 111 284 84 686 -61 916 -35 56 -52 76 -123 148 -156
157 -397 263 -714 313 -21 4 -48 8 -60 11 -12 2 -48 7 -80 10 -96 8 -93 21 7
30 96 8 290 49 377 80 175 63 291 134 400 245 113 114 174 229 208 393 23 108
21 320 -4 399 -2 9 -6 25 -8 35 -8 35 -49 139 -74 183 -100 176 -272 314 -497
398 -104 39 -187 63 -270 77 -16 3 -37 8 -45 10 -8 2 -42 7 -75 11 -33 3 -62
7 -65 9 -15 9 -484 27 -493 19z m299 -147 c106 -54 166 -161 189 -337 16 -125
20 -221 20 -510 -1 -407 -10 -511 -55 -632 -42 -114 -131 -175 -268 -185 -242
-17 -367 93 -406 357 -26 175 -27 805 -1 955 26 147 50 216 99 278 63 79 141
108 276 104 78 -3 104 -8 146 -30z m-75 -1802 c30 -3 78 -17 107 -30 201 -93
274 -333 275 -895 0 -165 -11 -418 -18 -431 -2 -3 -7 -30 -10 -60 -23 -213
-119 -365 -265 -420 -63 -24 -215 -34 -294 -18 -221 42 -323 213 -353 589 -14
184 -6 676 13 772 2 13 9 50 14 83 34 192 117 324 239 379 54 24 169 45 216
40 11 -1 45 -5 76 -9z"/>
</g>
</svg>
